PathFileType	4	(X/Y/Z)	C:/Users/beibeiliu/ov580/test_trc\sequence.11_training_dense_right.trc
DataRate	CameraRate	NumFrames	NumMarkers	Units	OrigDataRate	OrigDataStartFrame	OrigNumFrames
120	120	8	19	mm	120	299	398
Frame#	Time	ThumbCMC			ThumbMCP			ThumbIP			ThumbTip			IndexMCP			IndexPIP			IndexTip			MiddleMCP			MiddlePIP			MiddleTip			RingMCP			RingPIP			RingTip			PinkyMCP			PinkyPIP			PinkyTip			BackHand1			BackHand2			BackHand3	
		X0	Y0	Z0	X1	Y1	Z1	X2	Y2	Z2	X3	Y3	Z3	X4	Y4	Z4	X5	Y5	Z5	X6	Y6	Z6	X7	Y7	Z7	X8	Y8	Z8	X9	Y9	Z9	X10	Y10	Z10	X11	Y11	Z11	X12	Y12	Z12	X13	Y13	Z13	X14	Y14	Z14	X15	Y15	Z15	X16	Y16	Z16	X17	Y17	Z17	X18	Y18	Z18	
298	2.48333	164.602	-21.4342	46.1028	159.478	-21.4662	12.5533	165.055	-18.3133	-10.6718	173.581	-16.0477	-33.038	175.342	29.5956	3.54992	168.014	46.2485	-12.7904	167.583	59.4591	-25.9446	200.795	28.5046	-5.02482	201.395	39.0774	-29.7387	204.305	43.0746	-54.6113	211.686	6.43583	-12.0658	206.376	-10.0053	-29.6692	193.051	-36.7771	-21.8018	227.73	-9.50882	-6.22972	212.891	-23.7843	-16.4239	197.257	-35.2179	-1.28695	216.892	4.08916	37.9228	212.606	-10.3989	64.9688	190.253	2.23767	51.3753	
299	2.49167	170.11	-17.4558	45.8001	159.474	-15.6514	10.813	162.372	-15.4035	-8.8437	171.138	-12.0588	-33.5799	178.518	32.4068	4.67264	175.065	46.435	-10.8618	173.424	62.91	-26.3737	204.35	31.3985	-9.80668	205.872	34.8356	-32.9717	204.428	29.3772	-59.5788	214.797	9.38313	-13.7116	206.223	-9.63542	-30.8984	195.23	-32.8831	-21.9481	229.437	-5.72801	-3.12898	212.92	-23.1876	-16.3804	198.636	-34.0152	2.32462	219.266	5.97541	40.945	219.717	-6.48054	61.0976	191.268	5.92374	52.4627	
300	2.5	174.8	-12.4411	47.1964	161.332	-13.5003	14.8139	161.431	-7.9704	-10.6687	167.313	-7.4297	-28.6344	183.553	38.8161	3.57973	180.185	51.0977	-12.0765	177.444	68.217	-28.2106	205.664	32.6161	-9.82986	202.057	32.2552	-35.6572	200.729	8.65719	-58.2777	219.28	12.2826	-11.6314	208.856	-6.0493	-29.9864	196.269	-26.2097	-18.1038	231.9	-3.77673	-8.52462	215.9	-23.5983	-15.4564	202.436	-30.403	1.34907	221.809	11.5353	37.6159	220.979	-1.73274	61.3576	195.258	10.99	52.7629	
301	2.50833	173.425	-7.90526	49.0697	167.562	-7.99407	16.3486	162.479	-5.04903	-6.80267	169.537	-0.645461	-29.4571	186.901	43.0494	4.88726	184.165	55.6656	-12.7244	184.479	71.4018	-29.6014	209.347	33.208	-13.5928	201.814	23.0824	-39.0589	195.019	-8.54066	-44.033	219.165	13.3338	-13.5308	208.273	-4.96146	-25.7641	196.656	-23.3233	-5.1112	230.497	0.828003	-7.29181	219.52	-17.3532	-13.2661	205.227	-26.6951	11.7982	226.915	12.724	39.4827	226.353	0.727139	65.1742	203.293	16.0597	50.455	
302	2.51667	181.296	-2.87449	49.5163	172.27	-4.58666	19.4393	167.4	-1.11173	-3.9396	171.163	-0.25185	-23.5649	189.809	44.6391	6.74887	190.731	57.9757	-14.0448	188.35	73.445	-31.4146	208.942	31.0275	-10.0488	201.989	13.8133	-35.3893	193.475	-15.9055	-25.9674	223.133	12.3686	-13.623	210.002	-10.5354	-19.0343	202.921	-22.0431	5.6785	233.348	1.25493	-5.93547	218.983	-19.0986	-7.73918	210.103	-21.1611	16.2403	228.314	18.8933	38.9125	228.365	3.99626	66.6096	206.048	20.7768	52.6979	
303	2.525	181.64	0.429664	53.358	173.651	-2.80507	20.9768	167.904	-2.20812	-2.97427	169.079	-3.96505	-22.069	194.238	43.8803	5.79926	188.888	56.693	-13.9454	188.674	67.4453	-29.4009	210.794	26.8021	-14.2371	195.899	4.66949	-30.3902	192.101	-17.8466	-11.0761	222.987	10.3507	-7.68073	209.647	-15.9754	-12.4129	203.187	-20.2337	16.0661	235.229	-3.94872	-6.016	219.627	-20.2008	-2.49024	208.514	-15.8502	24.1281	230.346	20.5466	37.142	231.463	8.95758	64.6758	206.315	23.2434	54.9226	
304	2.53333	185.218	0.498427	57.315	174.826	-5.93922	27.3984	172.748	-6.73484	4.27994	173.856	-10.363	-15.752	188.657	41.5834	2.67787	186.506	47.4715	-13.2336	186.579	59.0427	-34.8732	205.443	20.3867	-11.9957	196.46	-4.95087	-23.7617	190.172	-22.5967	5.72387	217.403	1.88349	-7.51949	204.7	-22.8049	-1.87144	203.69	-22.3273	23.3787	234.767	-9.05209	-1.67948	218.76	-24.3201	3.5282	213.732	-20.7138	29.0394	232.038	20.11	38.1358	234.34	12.878	64.7479	207.136	26.0079	58.138	
305	2.54167	184.07	-1.39622	63.0819	172.538	-12.1344	36.3874	171.614	-12.2817	8.82012	175.368	-16.8555	-12.3344	185.853	32.3642	5.8274	179.977	38.5087	-12.3402	177.772	48.599	-31.8686	201.711	12.7862	-6.8459	189.927	-15.6341	-15.5652	189.267	-26.966	12.4781	214.353	-6.80916	-4.11585	202.565	-27.0804	2.10009	201.171	-24.4556	31.175	233.781	-13.6729	5.0774	215.308	-31.9918	14.3322	209.894	-20.106	33.0602	231.363	16.3226	41.8939	236.446	12.4515	66.0035	205.475	22.8164	59.121	
